<?xml version="1.0" encoding="UTF-8" standalone="no"?>
<svg
   xmlns:dc="http://purl.org/dc/elements/1.1/"
   xmlns:cc="http://creativecommons.org/ns#"
   xmlns:rdf="http://www.w3.org/1999/02/22-rdf-syntax-ns#"
   xmlns:svg="http://www.w3.org/2000/svg"
   xmlns="http://www.w3.org/2000/svg"
   xmlns:xlink="http://www.w3.org/1999/xlink"
   xmlns:sodipodi="http://sodipodi.sourceforge.net/DTD/sodipodi-0.dtd"
   xmlns:inkscape="http://www.inkscape.org/namespaces/inkscape"
   viewBox="0 0 16 16"
   version="1.1"
   id="svg6"
   sodipodi:docname="user-home.svg"
   inkscape:version="0.92.4 (unknown)">
  <metadata
     id="metadata10">
    <rdf:RDF>
      <cc:Work
         rdf:about="">
        <dc:format>image/svg+xml</dc:format>
        <dc:type
           rdf:resource="http://purl.org/dc/dcmitype/StillImage" />
      </cc:Work>
    </rdf:RDF>
  </metadata>
  <sodipodi:namedview
     pagecolor="#ffffff"
     bordercolor="#666666"
     borderopacity="1"
     objecttolerance="10"
     gridtolerance="10"
     guidetolerance="10"
     inkscape:pageopacity="0"
     inkscape:pageshadow="2"
     inkscape:window-width="1366"
     inkscape:window-height="723"
     id="namedview8"
     showgrid="false"
     inkscape:zoom="14.335917"
     inkscape:cx="13.166607"
     inkscape:cy="8.0246621"
     inkscape:window-x="0"
     inkscape:window-y="22"
     inkscape:window-maximized="1"
     inkscape:current-layer="svg6" />
  <defs
     id="defs3051">
    <linearGradient
       inkscape:collect="always"
       id="linearGradient821">
      <stop
         style="stop-color:#74eed9;stop-opacity:1"
         offset="0"
         id="stop817" />
      <stop
         style="stop-color:#cc97ff;stop-opacity:1"
         offset="1"
         id="stop819" />
    </linearGradient>
    <style
       type="text/css"
       id="current-color-scheme">
      .ColorScheme-Text {
        color:#4d4d4d;
      }
      </style>
    <linearGradient
       inkscape:collect="always"
       xlink:href="#linearGradient821"
       id="linearGradient823"
       x1="2"
       y1="8"
       x2="14"
       y2="8"
       gradientUnits="userSpaceOnUse" />
  </defs>
  <path
     style="fill:url(#linearGradient823);fill-opacity:1;stroke:none"
     d="M 8 2 L 7.2929688 2.6992188 L 7.296875 2.703125 L 2 7.9980469 L 2 8 L 2 9 L 3.0078125 9 L 3.0078125 13 L 3 13 L 3 14 L 13 14 L 13 13 L 13 9 L 14 9 L 14 8 L 14 7.9980469 L 12.857422 6.8554688 L 12.15625 7.5566406 L 12.599609 8 L 12 8 L 12 13 L 9 13 L 9 10 L 7 10 L 7 13 L 4 13 L 4 9 L 4 8 L 3.4003906 8 L 7.9980469 3.4042969 L 8 3.40625 L 8.0019531 3.4042969 L 9.4433594 4.84375 L 10.144531 4.1425781 L 8.703125 2.703125 L 8.7070312 2.6992188 L 8 2 z M 11 3 L 11 6 L 12.007812 6 L 12.007812 3 L 11 3 z "
     class="ColorScheme-Text"
     id="path4" />
</svg>
