<svg xmlns="http://www.w3.org/2000/svg" xmlns:xlink="http://www.w3.org/1999/xlink" aria-hidden="true" role="img" class="iconify iconify--ic" width="32" height="32" preserveAspectRatio="xMidYMid meet" viewBox="0 0 24 24"><path d="M14 11.26V6h3v4h2V4h-5V3H5v16H3v2h9.26A6.963 6.963 0 0 1 11 17c0-2.38 1.19-4.47 3-5.74zM10 11h2v2h-2v-2zm11.69 5.37l1.14-1l-1-1.73l-1.45.49c-.32-.27-.68-.48-1.08-.63L19 12h-2l-.3 1.49c-.4.15-.76.36-1.08.63l-1.45-.49l-1 1.73l1.14 1c-.08.5-.08.76 0 1.26l-1.14 1l1 1.73l1.45-.49c.32.27.68.48 1.08.63L17 22h2l.3-1.49c.4-.15.76-.36 1.08-.63l1.45.49l1-1.73l-1.14-1c.08-.51.08-.77 0-1.27zM18 19c-1.1 0-2-.9-2-2s.9-2 2-2s2 .9 2 2s-.9 2-2 2z" fill="currentColor"></path></svg>