<?xml version="1.0" encoding="UTF-8" standalone="no"?>
<svg
   xmlns:dc="http://purl.org/dc/elements/1.1/"
   xmlns:cc="http://creativecommons.org/ns#"
   xmlns:rdf="http://www.w3.org/1999/02/22-rdf-syntax-ns#"
   xmlns:svg="http://www.w3.org/2000/svg"
   xmlns="http://www.w3.org/2000/svg"
   xmlns:sodipodi="http://sodipodi.sourceforge.net/DTD/sodipodi-0.dtd"
   xmlns:inkscape="http://www.inkscape.org/namespaces/inkscape"
   inkscape:version="1.0 (4035a4fb49, 2020-05-01)"
   sodipodi:docname="preferences-desktop-display.svg"
   id="svg9"
   version="1.1"
   height="48pt"
   width="48pt"
   viewBox="0 0 48 48"
   style="isolation:isolate">
  <metadata
     id="metadata15">
    <rdf:RDF>
      <cc:Work
         rdf:about="">
        <dc:format>image/svg+xml</dc:format>
        <dc:type
           rdf:resource="http://purl.org/dc/dcmitype/StillImage" />
      </cc:Work>
    </rdf:RDF>
  </metadata>
  <defs
     id="defs13" />
  <sodipodi:namedview
     inkscape:current-layer="svg9"
     inkscape:window-maximized="1"
     inkscape:window-y="17"
     inkscape:window-x="0"
     inkscape:cy="32"
     inkscape:cx="32"
     inkscape:zoom="4.3180333"
     showgrid="false"
     id="namedview11"
     inkscape:window-height="730"
     inkscape:window-width="1366"
     inkscape:pageshadow="2"
     inkscape:pageopacity="0"
     guidetolerance="10"
     gridtolerance="10"
     objecttolerance="10"
     borderopacity="1"
     bordercolor="#666666"
     pagecolor="#ffffff" />
  <linearGradient
     gradientUnits="userSpaceOnUse"
     gradientTransform="matrix(44,0,0,44,2,2)"
     y2="0.5"
     x2="1"
     y1="0.5"
     x1="0"
     id="_lgradient_10">
    <stop
       id="stop2"
       style="stop-color:#a770ef;stop-opacity:1"
       stop-opacity="1"
       offset="0%" />
    <stop
       offset="0.5"
       stop-opacity="1"
       style="stop-color:#cf8bf3;stop-opacity:1"
       id="stop840" />
    <stop
       id="stop4"
       style="stop-color:#fdb99b;stop-opacity:1"
       stop-opacity="1"
       offset="100%" />
  </linearGradient>
  <path
     sodipodi:nodetypes="ccccccccssssssssccsscsssscsssssssscsssscsssssscc"
     id="path7"
     fill="url(#_lgradient_10)"
     fill-rule="evenodd"
     d="m 21,35 v 7 h 6 v -7 z m -4,0 v 7 h -6 c -1.104,0 -2,0.896 -2,2 v 0 c 0,1.104 0.896,2 2,2 h 26 c 1.104,0 2,-0.896 2,-2 v 0 c 0,-1.104 -0.896,-2 -2,-2 h -6 v -7 h 10 c 2.76,0 5,-2.24 5,-5 v -11 0 c 0,-1.104 -0.896,-2 -2,-2 v 0 c -1.104,0 -2,0.896 -2,2 v 0 11 c 0,0.552 -0.448,1 -1,1 H 7 C 6.448,31 6,30.552 6,30 V 7 C 6,6.448 6.448,6 7,6 h 34 c 0.552,0 1,0.448 1,1 v 3 0 c 0,1.104 0.896,2 2,2 v 0 c 1.104,0 2,-0.896 2,-2 V 10 7 C 46,4.24 43.76,2 41,2 H 7 C 4.24,2 2,4.24 2,7 v 23 c 0,2.76 2.24,5 5,5 z" />
</svg>
