<?xml version="1.0" encoding="iso-8859-1"?>
<svg version="1.1" id="Capa_1" xmlns="http://www.w3.org/2000/svg" xmlns:xlink="http://www.w3.org/1999/xlink" x="0px" y="0px" viewBox="0 0 512 512" style="enable-background:new 0 0 512 512;" xml:space="preserve"><defs><linearGradient id="mygrad" x1="0%" y1="0%" x2="100%" y2="0%"><stop offset="0%" style="stop-color:#fea800;stop-opacity:1" /><stop offset="100%" style="stop-color:#fd6300;stop-opacity:1" /></linearGradient></defs><g fill="url(#mygrad)"><path d="M352,128H160c-17.643,0-32,14.357-32,32v298.667C128,488.085,151.936,512,181.333,512h149.333 C360.064,512,384,488.085,384,458.667V160C384,142.357,369.643,128,352,128z M362.667,458.667c0,17.643-14.357,32-32,32H181.333 c-17.643,0-32-14.357-32-32V160c0-5.867,4.779-10.667,10.667-10.667h192c5.888,0,10.667,4.8,10.667,10.667V458.667z"/><path d="M352,0H160c-5.888,0-10.667,4.779-10.667,10.667v128c0,5.888,4.779,10.667,10.667,10.667h192 c5.888,0,10.667-4.779,10.667-10.667v-128C362.667,4.779,357.888,0,352,0z M341.333,128H170.667V21.333h170.667V128z"/><path d="M224,42.667c-5.888,0-10.667,4.779-10.667,10.667V96c0,5.888,4.779,10.667,10.667,10.667s10.667-4.779,10.667-10.667 V53.333C234.667,47.445,229.888,42.667,224,42.667z"/><path d="M288,42.667c-5.888,0-10.667,4.779-10.667,10.667V96c0,5.888,4.779,10.667,10.667,10.667s10.667-4.779,10.667-10.667 V53.333C298.667,47.445,293.888,42.667,288,42.667z"/></g></svg>
