<svg xmlns="http://www.w3.org/2000/svg" clip-rule="evenodd" fill-rule="evenodd" stroke-linejoin="round" stroke-miterlimit="1.4142" version="1.1" xml:space="preserve" viewBox="0.62 10.11 10.8 13.5"><rect id="backgroundrect" width="100%" height="100%" x="0" y="0" fill="none" stroke="none"/><g class="currentLayer" style=""><title>Layer 1</title><g fill="#009688" id="svg_2" class="selected"><path d="m6.693811607360843,14.83919802570343 h3.7125000000000004 l-3.7125000000000004,-3.7125000000000004 v3.7125000000000004 m-4.7250000000000005,-4.7250000000000005 h5.4 l4.050000000000001,4.050000000000001 v8.100000000000001 c0,0.7404750000000001 -0.6095250000000002,1.35 -1.35,1.35 h-8.100000000000001 c-0.7492500000000002,0 -1.35,-0.6075 -1.35,-1.35 v-10.8 c0,-0.7492500000000002 0.6007500000000002,-1.35 1.35,-1.35 m0,12.15 h8.100000000000001 v-5.4 l-2.7,2.7 l-1.35,-1.35 l-4.050000000000001,4.050000000000001 m1.35,-7.425000000000001 c-0.7404750000000001,0 -1.35,0.6095250000000002 -1.35,1.35 s0.6095250000000002,1.35 1.35,1.35 s1.35,-0.6095250000000002 1.35,-1.35 s-0.6095250000000002,-1.35 -1.35,-1.35 z" fill="#009688" fill-rule="nonzero" stroke-width="0" id="svg_3"/></g></g></svg>