<svg clip-rule="evenodd" fill-rule="evenodd" stroke-linejoin="round" stroke-miterlimit="1.414" version="1.1" viewBox="0 0 24 24" xmlns="http://www.w3.org/2000/svg"><path d="M10 4H4c-1.11 0-2 .89-2 2v12c0 1.097.903 2 2 2h16c1.097 0 2-.903 2-2V8a2 2 0 0 0-2-2h-8l-2-2z" fill="#01579B" fill-rule="nonzero" style="fill:#0288d1"/><path d="m17.66 10.789c-.70848-.06441-1.3332.45729-1.3976 1.1722l-.16102 1.8614h1.8163v1.2881h-1.9322l-.28339 3.2654c-.12881 1.4169-1.3783 2.4668-2.7953 2.338-.80508-.07085-1.5329-.51526-1.958-1.2044l.9661-.9661c.21254.67627.94034 1.0563 1.6102.83729.50237-.15458.85661-.59898.90169-1.1207l.27051-3.1495h-1.9322v-1.2881h2.0481l.1739-1.9773c.12237-1.4169 1.3654-2.4668 2.7888-2.3508.81152.07085 1.5458.52169 1.9708 1.2173l-.9661.9661c-.16102-.49593-.59898-.84373-1.1207-.88881m6.1702 5.3844-.90814-.90814-1.8227 1.8227-1.8227-1.8227-.92102.90814 1.8356 1.8356-1.8356 1.8098.92102.90814 1.8227-1.8227 1.8227 1.8227.90814-.90814-1.8227-1.8098z" style="fill:#b3e5fc;stroke-width:.64407"/></svg>
