<?xml version="1.0" encoding="utf-8"?>
<svg viewBox="0 0 500 500" xmlns="http://www.w3.org/2000/svg">
  <path d="M 202.836 90.862 L 82.683 90.862 C 60.454 90.862 42.632 108.684 42.632 130.913 L 42.632 371.22 C 42.632 393.189 60.715 411.272 82.683 411.272 L 403.093 411.272 C 425.06 411.272 443.145 393.189 443.145 371.22 L 443.145 170.965 C 443.145 148.736 425.121 130.913 403.093 130.913 L 242.888 130.913 L 202.836 90.862 Z" fill-rule="nonzero" style="fill: rgb(18, 142, 220);"/>
  <text style="font-size: 36; font-family: Roboto; white-space: pre;" transform="matrix(1, 0, 0, 1, 273.115204, 102.418205)"/>
  <path d="M 372.066 237.418 C 342.714 237.408 314.842 250.974 295.835 274.526 L 281.974 261.548 C 278.978 258.772 274.718 258.107 271.07 259.833 C 267.421 261.56 265.067 265.377 265.057 269.592 L 265.057 312.491 C 265.057 318.412 269.622 323.216 275.248 323.216 L 321.108 323.216 C 325.319 323.204 329.079 320.47 330.587 316.352 C 332.126 312.169 331.036 307.418 327.835 304.447 L 311.019 288.682 C 326.246 269.764 348.615 258.857 372.168 258.867 C 434.936 258.857 474.172 330.348 442.803 387.554 C 411.425 444.749 332.972 444.77 301.582 387.575 C 299.086 383.028 296.996 378.245 295.326 373.301 C 292.737 365.493 283.096 363.574 277.969 369.826 C 275.595 372.732 274.871 376.753 276.063 380.378 C 302.194 458.219 398.604 477.116 449.601 414.387 C 500.608 351.647 467.945 254.342 390.827 239.231 C 384.641 238.018 378.364 237.408 372.066 237.418 Z" style="fill: rgb(32, 191, 130);"/>
  <path d="M 409.327 394.15 C 407.289 394.15 405.307 393.455 403.666 392.164 L 365.924 362.377 C 363.555 360.5 362.15 357.561 362.15 354.433 L 362.15 314.715 C 362.15 307.07 370.019 302.294 376.302 306.117 C 379.228 307.885 381.02 311.161 381.02 314.715 L 381.02 349.469 L 414.988 376.278 C 419.159 379.564 420.008 385.791 416.875 390.178 C 415.101 392.681 412.299 394.15 409.327 394.15 Z" fill="#31a75e" style=""/>
</svg>