<svg id="Layer_1" data-name="Layer 1" xmlns="http://www.w3.org/2000/svg" xmlns:xlink="http://www.w3.org/1999/xlink" viewBox="0 0 252 198"><defs><style>.cls-1,.cls-6,.cls-7{fill:none;stroke:#995b99;stroke-linecap:round;stroke-linejoin:round;}.cls-1{stroke-width:7px;}.cls-1,.cls-4,.cls-5,.cls-7{fill-rule:evenodd;}.cls-2{fill:url(#linear-gradient);}.cls-3{fill:#b55c85;}.cls-4{fill:#f7afd1;}.cls-5{fill:#f59bc5;}.cls-6,.cls-7{stroke-width:5px;}.cls-6{opacity:0.72;}</style><linearGradient id="linear-gradient" x1="830.95" y1="460.69" x2="1052.18" y2="619.79" gradientUnits="userSpaceOnUse"><stop offset="0" stop-color="#ef599f"/><stop offset="1" stop-color="#f59496"/></linearGradient></defs><path class="cls-1" d="M1393.5,765.5" transform="translate(-834 -441)"/><path class="cls-2" d="M924.4,441H856.6A22.76,22.76,0,0,0,834,463.93V601.48a22.83,22.83,0,0,0,22.6,22.92h180.8a22.83,22.83,0,0,0,22.6-22.92V486.85a22.76,22.76,0,0,0-22.6-22.92H947Z" transform="translate(-834 -441)"/><ellipse class="cls-3" cx="197.96" cy="76.23" rx="54.04" ry="9.37"/><path class="cls-4" d="M1085.47,518.77l-24,120.23h-4.65l23.52-117.91A17,17,0,0,0,1085.47,518.77Z" transform="translate(-834 -441)"/><path class="cls-5" d="M1080.36,521.09,1056.84,639h-54.59L978.88,521.81l-.64-3.22c4.85,4.17,27.06,7.31,53.72,7.31a271.15,271.15,0,0,0,33.67-1.91h.07A91.6,91.6,0,0,0,1080.36,521.09Z" transform="translate(-834 -441)"/><line class="cls-6" x1="169.53" y1="112.44" x2="187.31" y2="180.85"/><line class="cls-6" x1="228.35" y1="109.98" x2="216.04" y2="180.85"/><path class="cls-7" d="M974.91,551" transform="translate(-834 -441)"/><line class="cls-6" x1="200.31" y1="109.98" x2="200.31" y2="180.85"/></svg>