<svg clip-rule="evenodd" fill-rule="evenodd" stroke-linejoin="round" stroke-miterlimit="1.4142" version="1.1" viewBox="0 0 24 24" xml:space="preserve" xmlns="http://www.w3.org/2000/svg"><path d="m10 4h-6c-1.11 0-2 .89-2 2v12c0 1.097.903 2 2 2h16c1.097 0 2-.903 2-2v-10c0-1.11-.9-2-2-2h-8l-2-2z" fill="#0097a7" fill-rule="nonzero" style="fill:#8d6e63"/><path d="m17.651 19.894a4.7612 4.7612 0 0 0 4.7612 -4.7612 4.7612 4.7612 0 0 0 -4.7612 -4.7612 4.7612 4.7612 0 0 0 -4.7612 4.7612 4.7612 4.7612 0 0 0 4.7612 4.7612m0-10.713a5.9515 5.9515 0 0 1 5.9515 5.9515 5.9515 5.9515 0 0 1 -5.9515 5.9515c-3.2912 0-5.9515-2.6782-5.9515-5.9515a5.9515 5.9515 0 0 1 5.9515 -5.9515m.29758 2.9758v3.1245l2.6782 1.5891-.44636.73204-3.1245-1.8747v-3.5709z" fill="#b2ebf2" stroke="#b2ebf2" stroke-miterlimit="4" stroke-width=".271" style="fill:#d7ccc8;stroke:#d7ccc8"/></svg>
