<svg version="1.2" baseProfile="tiny-ps" xmlns="http://www.w3.org/2000/svg" viewBox="0 0 24 24" width="24" height="24">
	<title>music-svg</title>
	<defs>
		<linearGradient id="grd1" gradientUnits="userSpaceOnUse"  x1="11" y1="15" x2="22" y2="15">
			<stop offset="-99" stop-color="#fdb99b"  />
			<stop offset="0" stop-color="#be8cc2"  />
			<stop offset="1" stop-color="#d891ef"  />
		</linearGradient>
	</defs>
	<style>
		tspan { white-space:pre }
		.shp0 { fill: #8c00ae } 
		.shp1 { fill: url(#grd1) } 
	</style>
	<path id="Layer" class="shp0" d="M10 3L4 3C2.89 3 2 3.89 2 5L2 17C2 18.1 2.9 19 4 19L20 19C21.1 19 22 18.1 22 17L22 7C22 5.89 21.1 5 20 5L12 5L10 3Z" />
	<path id="path7" fill-rule="evenodd" class="shp1" d="M12.25 17.5C11.56 17.5 11 16.99 11 16.36L11 11.14C11 10.51 11.56 10 12.25 10L20.75 10C21.44 10 22 10.51 22 11.14L22 11.82C22 12.07 21.78 12.27 21.5 12.27C21.22 12.27 21 12.07 21 11.82L21 11.14C21 11.01 20.89 10.91 20.75 10.91L12.25 10.91C12.11 10.91 12 11.01 12 11.14L12 16.36C12 16.49 12.11 16.59 12.25 16.59L20.75 16.59C20.89 16.59 21 16.49 21 16.36L21 13.86C21 13.61 21.22 13.41 21.5 13.41C21.78 13.41 22 13.61 22 13.86L22 16.36C22 16.99 21.44 17.5 20.75 17.5L18.25 17.5L18.25 19.09L19.75 19.09C20.03 19.09 20.25 19.29 20.25 19.55C20.25 19.8 20.03 20 19.75 20L13.25 20C12.97 20 12.75 19.8 12.75 19.55C12.75 19.29 12.97 19.09 13.25 19.09L14.75 19.09L14.75 17.5L12.25 17.5ZM15.75 17.5L15.75 19.09L17.25 19.09L17.25 17.5L15.75 17.5Z" />
</svg>