<svg xmlns="http://www.w3.org/2000/svg" version="1.2" baseProfile="tiny-ps" viewBox="4.64 9.09 11 10"><rect id="backgroundrect" width="100%" height="100%" x="0" y="0" fill="none" stroke="none"/>
	<title>music-svg</title>
	<defs>
		<linearGradient id="grd1" gradientUnits="userSpaceOnUse" x1="11" y1="15" x2="22" y2="15">
			<stop offset="-99" stop-color="#ff9800"/>
			<stop offset="0" stop-color="#be8cc2"/>
			<stop offset="1" stop-color="#d891ef"/>
		</linearGradient>
	</defs>
	<style>
		tspan { white-space:pre }
		.shp0 { fill: #8c00ae } 
		.shp1 { fill: url(#grd1) } 
	</style>
	
	
<g class="currentLayer" style=""><title>Layer 1</title><path id="path7" fill-rule="evenodd" class="shp1 selected" d="M5.886363983154297,16.590909123420715 C5.196363983154297,16.590909123420715 4.636363983154297,16.080909123420714 4.636363983154297,15.450909123420715 L4.636363983154297,10.230909123420716 C4.636363983154297,9.600909123420715 5.196363983154297,9.090909123420715 5.886363983154297,9.090909123420715 L14.386363983154297,9.090909123420715 C15.076363983154298,9.090909123420715 15.636363983154297,9.600909123420715 15.636363983154297,10.230909123420716 L15.636363983154297,10.910909123420716 C15.636363983154297,11.160909123420716 15.416363983154298,11.360909123420715 15.136363983154297,11.360909123420715 C14.856363983154296,11.360909123420715 14.636363983154297,11.160909123420716 14.636363983154297,10.910909123420716 L14.636363983154297,10.230909123420716 C14.636363983154297,10.100909123420715 14.526363983154297,10.000909123420715 14.386363983154297,10.000909123420715 L5.886363983154297,10.000909123420715 C5.746363983154296,10.000909123420715 5.636363983154297,10.100909123420715 5.636363983154297,10.230909123420716 L5.636363983154297,15.450909123420715 C5.636363983154297,15.580909123420714 5.746363983154296,15.680909123420715 5.886363983154297,15.680909123420715 L14.386363983154297,15.680909123420715 C14.526363983154297,15.680909123420715 14.636363983154297,15.580909123420714 14.636363983154297,15.450909123420715 L14.636363983154297,12.950909123420715 C14.636363983154297,12.700909123420715 14.856363983154296,12.500909123420715 15.136363983154297,12.500909123420715 C15.416363983154298,12.500909123420715 15.636363983154297,12.700909123420715 15.636363983154297,12.950909123420715 L15.636363983154297,15.450909123420715 C15.636363983154297,16.080909123420714 15.076363983154298,16.590909123420715 14.386363983154297,16.590909123420715 L11.886363983154297,16.590909123420715 L11.886363983154297,18.180909123420715 L13.386363983154297,18.180909123420715 C13.666363983154298,18.180909123420715 13.886363983154297,18.380909123420714 13.886363983154297,18.640909123420716 C13.886363983154297,18.890909123420716 13.666363983154298,19.090909123420715 13.386363983154297,19.090909123420715 L6.886363983154297,19.090909123420715 C6.6063639831542975,19.090909123420715 6.386363983154297,18.890909123420716 6.386363983154297,18.640909123420716 C6.386363983154297,18.380909123420714 6.6063639831542975,18.180909123420715 6.886363983154297,18.180909123420715 L8.386363983154297,18.180909123420715 L8.386363983154297,16.590909123420715 L5.886363983154297,16.590909123420715 zM9.386363983154297,16.590909123420715 L9.386363983154297,18.180909123420715 L10.886363983154297,18.180909123420715 L10.886363983154297,16.590909123420715 L9.386363983154297,16.590909123420715 z"/></g></svg>