<?xml version="1.0" encoding="UTF-8" standalone="no"?>
<svg
   xmlns:dc="http://purl.org/dc/elements/1.1/"
   xmlns:cc="http://creativecommons.org/ns#"
   xmlns:rdf="http://www.w3.org/1999/02/22-rdf-syntax-ns#"
   xmlns:svg="http://www.w3.org/2000/svg"
   xmlns="http://www.w3.org/2000/svg"
   xmlns:xlink="http://www.w3.org/1999/xlink"
   xmlns:sodipodi="http://sodipodi.sourceforge.net/DTD/sodipodi-0.dtd"
   xmlns:inkscape="http://www.inkscape.org/namespaces/inkscape"
   viewBox="0 0 16 16"
   version="1.1"
   id="svg6"
   sodipodi:docname="user-trash-full.svg"
   inkscape:version="0.92.4 (unknown)"><metadata
   id="metadata10">
  <rdf:RDF>
    <cc:Work
       rdf:about="">
      <dc:format>image/svg+xml</dc:format>
      <dc:type
         rdf:resource="http://purl.org/dc/dcmitype/StillImage" />
    </cc:Work>
  </rdf:RDF>
</metadata>
<sodipodi:namedview
   pagecolor="#ffffff"
   bordercolor="#666666"
   borderopacity="1"
   objecttolerance="10"
   gridtolerance="10"
   guidetolerance="10"
   inkscape:pageopacity="0"
   inkscape:pageshadow="2"
   inkscape:window-width="1366"
   inkscape:window-height="723"
   id="namedview8"
   showgrid="false"
   inkscape:zoom="20.274048"
   inkscape:cx="6.2612277"
   inkscape:cy="8.0493241"
   inkscape:window-x="0"
   inkscape:window-y="22"
   inkscape:window-maximized="1"
   inkscape:current-layer="svg6" />
<defs
   id="defs3051">
  <linearGradient
     inkscape:collect="always"
     id="linearGradient821">
    <stop
       style="stop-color:#f59496;stop-opacity:1"
       offset="0"
       id="stop817" />
    <stop
       style="stop-color:#ef599f;stop-opacity:1"
       offset="1"
       id="stop819" />
  </linearGradient>
  <style
     type="text/css"
     id="current-color-scheme">
      .ColorScheme-Text {
        color:#4d4d4d;
      }
      .ColorScheme-NegativeText {
        color:#da4453;
      }
      </style>
  <linearGradient
     inkscape:collect="always"
     xlink:href="#linearGradient821"
     id="linearGradient823"
     x1="1.8520275"
     y1="2.1797514"
     x2="14.197296"
     y2="11.058097"
     gradientUnits="userSpaceOnUse" />
</defs>
<path
   style="fill:url(#linearGradient823);fill-opacity:1;stroke:none"
   class="ColorScheme-NegativeText"
   d="M 6 2 L 6 3 L 2 3 L 2 4 L 3 4 L 3 14 L 4 14 L 13 14 L 13 13 L 13 4 L 14 4 L 14 3 L 10 3 L 10 2 L 6 2 z M 7 3 L 9 3 L 9 4 L 10 4 L 12 4 L 12 13 L 4 13 L 4 4 L 7 4 L 7 3 z M 6 6 L 6 11 L 7 11 L 7 6 L 6 6 z M 9 6 L 9 11 L 10 11 L 10 6 L 9 6 z "
   id="path4" />

  /&gt;
</svg>
