<svg id="Layer_1" data-name="Layer 1" xmlns="http://www.w3.org/2000/svg" viewBox="0 0 157.64 191.28"><defs><style>.cls-1{fill:#b55c85;}.cls-2{fill:#f7afd1;}.cls-2,.cls-3,.cls-5{fill-rule:evenodd;}.cls-3{fill:#f59bc5;}.cls-4,.cls-5{fill:none;stroke:#995b99;stroke-linecap:round;stroke-linejoin:round;stroke-width:5px;}.cls-4{opacity:0.72;}</style></defs><ellipse class="cls-1" cx="78.82" cy="13.66" rx="78.82" ry="13.66"/><path class="cls-2" d="M1040.24,460.28l-35,175.36h-6.78l34.3-172A25,25,0,0,0,1040.24,460.28Z" transform="translate(-883.38 -444.36)"/><path class="cls-3" d="M1032.79,463.66l-34.3,172H918.87L884.78,464.71l-.94-4.69c7.08,6.07,39.47,10.65,78.36,10.65a397.58,397.58,0,0,0,49.11-2.78h.11A133.32,133.32,0,0,0,1032.79,463.66Z" transform="translate(-883.38 -444.36)"/><line class="cls-4" x1="37.34" y1="66.48" x2="63.28" y2="166.27"/><line class="cls-4" x1="123.15" y1="62.89" x2="105.19" y2="166.27"/><path class="cls-5" d="M879,507.25" transform="translate(-883.38 -444.36)"/><line class="cls-4" x1="82.25" y1="62.89" x2="82.25" y2="166.27"/></svg>