<?xml version="1.0" standalone="no"?>
<!DOCTYPE svg PUBLIC "-//W3C//DTD SVG 20010904//EN"
 "http://www.w3.org/TR/2001/REC-SVG-20010904/DTD/svg10.dtd">
<svg version="1.0" xmlns="http://www.w3.org/2000/svg"
 width="512.000000pt" height="424.000000pt" viewBox="0 0 512.000000 424.000000"
 preserveAspectRatio="xMidYMid meet">

<g transform="translate(0.000000,424.000000) scale(0.100000,-0.100000)"
fill="#2DBCAF" stroke="none">
<path d="M160 4217 c-19 -6 -56 -32 -81 -58 -70 -69 -71 -79 -67 -599 l3 -445
28 -48 c34 -57 84 -92 152 -107 35 -7 774 -10 2400 -8 l2350 3 42 22 c51 27
96 82 112 132 7 26 11 180 11 492 0 418 -2 457 -19 494 -23 51 -89 111 -138
124 -55 16 -4745 13 -4793 -2z m1308 -230 c23 -15 54 -46 69 -69 l28 -41 3
-271 c4 -303 0 -325 -64 -389 -66 -66 -76 -67 -574 -67 -494 0 -507 1 -570 63
-66 64 -70 83 -70 367 0 140 4 271 10 290 13 48 61 104 112 129 42 21 50 21
529 19 l485 -3 42 -28z"/>
<path d="M166 2745 c-75 -27 -126 -81 -146 -157 -7 -24 -10 -200 -8 -490 3
-442 4 -454 25 -493 24 -46 54 -75 103 -101 34 -18 111 -19 2420 -19 l2385 0
42 22 c50 27 100 86 113 133 6 20 10 225 10 490 0 508 1 499 -71 567 -72 68
125 63 -2478 63 -1997 -1 -2362 -3 -2395 -15z m1232 -196 c61 -13 127 -66 153
-123 17 -37 19 -70 19 -304 0 -286 -3 -308 -58 -366 -15 -16 -45 -37 -67 -47
-37 -17 -74 -19 -515 -19 -441 0 -478 2 -516 19 -48 22 -101 82 -114 131 -6
19 -10 150 -10 290 0 226 3 260 19 296 24 52 93 111 145 123 59 13 883 14 944
0z"/>
<path d="M166 1275 c-75 -27 -126 -81 -146 -157 -7 -24 -10 -200 -8 -490 3
-442 4 -454 25 -493 24 -46 54 -75 103 -101 34 -18 113 -19 2390 -22 1746 -2
2369 0 2409 8 67 15 143 83 160 145 15 55 15 915 0 970 -15 56 -92 128 -152
143 -34 9 -642 12 -2394 12 -1990 -1 -2354 -3 -2387 -15z m1285 -213 c39 -20
62 -41 84 -77 l30 -48 0 -282 0 -282 -30 -48 c-22 -36 -45 -57 -84 -77 l-53
-28 -468 0 -468 0 -53 28 c-39 20 -62 41 -84 77 l-30 48 0 282 0 282 30 48
c22 36 45 57 84 77 l53 28 468 0 468 0 53 -28z"/>
</g>
</svg>
