<?xml version="1.0" standalone="no"?>
<!DOCTYPE svg PUBLIC "-//W3C//DTD SVG 20010904//EN"
 "http://www.w3.org/TR/2001/REC-SVG-20010904/DTD/svg10.dtd">
<svg version="1.0" xmlns="http://www.w3.org/2000/svg"
 width="512.000000pt" height="404.000000pt" viewBox="0 0 512.000000 404.000000"
 preserveAspectRatio="xMidYMid meet">

<g transform="translate(0.000000,404.000000) scale(0.100000,-0.100000)"
fill="#2DBCAF" stroke="none">
<path d="M305 4001 c-100 -36 -199 -121 -245 -211 -51 -100 -50 -58 -50 -1770
0 -1712 -1 -1670 50 -1770 27 -53 102 -135 154 -167 21 -14 64 -34 94 -44 53
-18 121 -19 2252 -19 2148 0 2198 0 2253 19 100 35 201 121 247 211 51 100 50
59 50 1770 0 1712 1 1670 -50 1770 -27 53 -102 135 -154 167 -21 14 -64 34
-94 44 -53 18 -121 19 -2256 19 -2099 -1 -2203 -2 -2251 -19z m1281 -357 c19
-9 44 -31 57 -48 22 -30 22 -38 25 -364 3 -325 2 -334 -19 -371 -12 -21 -39
-48 -60 -60 -37 -21 -42 -21 -561 -19 l-523 3 -34 24 c-67 48 -71 69 -71 411
0 297 1 307 23 350 12 25 37 55 56 67 l34 23 519 0 c459 0 524 -2 554 -16z
m1521 -1 c19 -9 47 -34 61 -56 l27 -41 0 -326 0 -326 -27 -41 c-49 -75 -33
-73 -608 -73 -575 0 -559 -2 -608 73 l-27 41 0 326 0 326 26 40 c50 76 31 74
607 74 458 0 518 -2 549 -17z m1584 -6 c18 -12 44 -38 56 -56 23 -34 23 -37
23 -361 0 -324 0 -327 -23 -361 -12 -18 -38 -44 -56 -56 l-34 -23 -522 0 -522
0 -34 23 c-19 12 -44 42 -56 67 -22 43 -23 53 -23 350 0 297 1 307 23 350 12
25 37 55 56 67 l34 23 522 0 522 0 34 -23z m-3100 -1200 c18 -12 44 -38 56
-56 23 -34 23 -37 23 -358 0 -367 -1 -374 -73 -421 l-41 -27 -493 -3 c-319 -2
-507 1 -532 8 -52 14 -90 45 -112 94 -17 37 -19 70 -19 346 0 276 2 309 19
346 17 38 54 73 91 87 8 3 247 6 531 6 l516 1 34 -23z m1518 2 c20 -11 48 -36
61 -56 l25 -36 3 -303 c2 -206 0 -316 -8 -345 -15 -53 -64 -104 -115 -118 -55
-15 -975 -15 -1030 0 -51 14 -100 65 -115 118 -7 28 -10 140 -8 344 3 341 4
345 83 393 l40 24 514 0 c499 0 514 -1 550 -21z m1588 -5 c15 -11 38 -36 51
-54 22 -33 22 -37 22 -357 0 -302 -1 -326 -20 -362 -11 -22 -36 -50 -57 -62
l-38 -24 -493 -3 c-325 -2 -506 1 -532 8 -49 13 -99 54 -116 97 -11 25 -14
102 -14 340 0 279 2 312 19 349 17 38 54 73 91 87 8 3 250 5 537 4 512 -2 522
-2 550 -23z m-3094 -1207 c67 -51 67 -49 67 -415 0 -325 0 -329 -23 -363 -12
-19 -42 -44 -67 -56 -44 -23 -46 -23 -535 -23 -291 0 -504 4 -524 10 -46 13
-99 65 -111 110 -13 46 -13 605 0 649 12 41 54 88 95 107 24 11 130 13 546 11
l516 -2 36 -28z m1490 19 c42 -17 83 -66 97 -114 13 -49 13 -585 0 -634 -15
-52 -53 -94 -103 -113 -37 -14 -102 -15 -548 -13 l-506 3 -36 28 c-71 54 -72
57 -75 389 -3 320 1 356 45 409 50 59 42 58 591 59 403 0 509 -3 535 -14z
m1591 -9 c22 -12 49 -35 60 -50 20 -28 21 -39 21 -370 l0 -342 -24 -34 c-13
-18 -42 -42 -65 -52 -38 -17 -75 -19 -538 -19 -327 0 -506 4 -525 11 -15 5
-41 22 -57 37 -54 51 -56 65 -56 400 0 303 0 310 23 352 16 30 37 51 67 67
l43 23 506 0 c505 0 506 0 545 -23z"/>
</g>
</svg>
