<?xml version="1.0" standalone="no"?>
<!DOCTYPE svg PUBLIC "-//W3C//DTD SVG 20010904//EN"
 "http://www.w3.org/TR/2001/REC-SVG-20010904/DTD/svg10.dtd">
<svg version="1.0" xmlns="http://www.w3.org/2000/svg"
 width="512.000000pt" height="379.000000pt" viewBox="0 0 512.000000 379.000000"
 preserveAspectRatio="xMidYMid meet">

<g transform="translate(0.000000,379.000000) scale(0.100000,-0.100000)"
fill="#2DBCAF" stroke="none">
<path d="M194 3757 c-74 -28 -138 -93 -162 -166 -18 -50 -17 -3337 0 -3395 16
-55 109 -148 164 -164 60 -17 4668 -17 4728 0 55 16 148 109 164 164 17 60 17
3338 0 3398 -16 55 -109 148 -164 164 -59 17 -4684 16 -4730 -1z m933 -228
c42 -15 92 -68 103 -109 13 -46 13 -384 0 -430 -11 -41 -61 -94 -103 -109 -18
-7 -158 -11 -386 -11 -354 0 -358 0 -401 23 -30 16 -51 37 -67 67 -22 41 -23
54 -23 245 0 191 1 204 23 245 16 30 37 51 67 67 43 23 47 23 401 23 228 0
368 -4 386 -11z m1263 -12 c30 -16 51 -37 67 -67 22 -41 23 -53 23 -249 0
-195 -2 -208 -23 -245 -14 -25 -39 -48 -66 -63 -44 -23 -47 -23 -402 -23 -371
0 -393 2 -438 43 -53 49 -61 86 -61 290 0 200 6 235 53 286 45 49 58 50 443
51 358 0 361 0 404 -23z m1200 1 c30 -15 53 -37 67 -63 21 -38 23 -51 23 -250
0 -199 -1 -212 -23 -250 -13 -22 -40 -49 -62 -62 -39 -22 -45 -23 -403 -23
-398 0 -406 1 -455 59 -40 48 -47 90 -47 276 0 184 8 229 45 273 51 61 55 62
450 62 354 0 362 0 405 -22z m1196 3 c23 -10 52 -34 65 -52 24 -34 24 -37 24
-264 0 -225 -1 -231 -23 -263 -13 -18 -41 -42 -63 -53 -38 -19 -56 -20 -413
-17 l-373 3 -36 28 c-69 52 -72 66 -72 302 0 222 4 244 51 287 53 47 58 48
439 48 330 0 363 -2 401 -19z m-3634 -853 c75 -43 83 -66 86 -288 2 -121 0
-209 -7 -231 -15 -51 -48 -88 -95 -110 -37 -17 -72 -19 -386 -19 -196 0 -360
4 -380 10 -41 11 -94 61 -109 103 -7 17 -11 110 -11 225 0 170 3 203 19 238
17 38 54 73 91 87 8 3 181 6 384 6 362 1 369 1 408 -21z m1256 -6 c65 -47 72
-77 72 -301 0 -116 -4 -211 -11 -228 -15 -42 -68 -92 -109 -103 -20 -6 -184
-10 -380 -10 -313 0 -349 2 -385 19 -90 41 -104 82 -105 316 0 192 6 234 42
273 60 64 45 63 463 60 l380 -3 33 -23z m1179 12 c19 -9 46 -33 61 -52 l27
-35 3 -219 c3 -207 2 -220 -18 -256 -12 -20 -37 -49 -57 -62 l-36 -25 -361 -3
c-399 -3 -420 -1 -470 59 -39 46 -46 90 -46 279 1 220 13 261 95 311 28 18 57
19 398 19 321 0 373 -2 404 -16z m1219 -10 c68 -50 69 -54 72 -295 l3 -220
-25 -44 c-17 -29 -40 -50 -69 -64 -42 -20 -58 -21 -398 -21 -405 0 -413 2
-466 81 -27 42 -28 46 -32 207 -5 253 8 305 89 360 l34 23 382 -3 c368 -3 384
-4 410 -24z m-3654 -886 c75 -43 83 -66 86 -288 2 -121 0 -209 -7 -231 -15
-51 -48 -88 -95 -110 -37 -17 -72 -19 -386 -19 -196 0 -360 4 -380 10 -41 11
-94 61 -109 103 -7 17 -11 110 -11 225 0 170 3 203 19 238 17 38 54 73 91 87
8 3 181 6 384 6 362 1 369 1 408 -21z m1256 -6 c65 -47 72 -77 72 -301 0 -116
-4 -211 -11 -228 -15 -42 -68 -92 -109 -103 -20 -6 -184 -10 -380 -10 -313 0
-349 2 -385 19 -90 41 -104 82 -105 316 0 192 6 234 42 273 60 64 45 63 463
60 l380 -3 33 -23z m1179 12 c19 -9 46 -33 61 -52 l27 -35 3 -219 c3 -207 2
-220 -18 -256 -12 -20 -37 -49 -57 -62 l-36 -25 -361 -3 c-399 -3 -420 -1
-470 59 -39 45 -46 90 -46 274 0 224 12 265 95 316 28 18 56 19 398 19 321 0
373 -2 404 -16z m1219 -10 c68 -50 69 -54 72 -295 l3 -220 -25 -44 c-17 -29
-40 -50 -69 -64 -42 -20 -58 -21 -398 -21 -405 0 -413 2 -466 81 -27 42 -28
46 -32 207 -5 253 8 305 89 360 l34 23 382 -3 c368 -3 384 -4 410 -24z m-3654
-886 c75 -43 83 -66 86 -288 2 -121 0 -209 -7 -231 -15 -51 -48 -88 -95 -110
-37 -17 -72 -19 -386 -19 -196 0 -360 4 -380 10 -41 11 -94 61 -109 103 -7 17
-11 110 -11 225 0 170 3 203 19 238 17 38 54 73 91 87 8 3 181 6 384 6 362 1
369 1 408 -21z m1256 -6 c65 -47 72 -77 72 -301 0 -116 -4 -211 -11 -228 -15
-42 -68 -92 -109 -103 -20 -6 -184 -10 -380 -10 -313 0 -349 2 -385 19 -90 41
-104 82 -105 316 0 192 6 234 42 273 60 64 45 63 463 60 l380 -3 33 -23z
m1179 12 c19 -9 46 -33 61 -52 l27 -35 3 -211 c2 -115 1 -220 -3 -233 -9 -38
-74 -102 -113 -113 -22 -6 -179 -10 -382 -10 -313 0 -349 2 -385 19 -90 41
-104 83 -105 311 0 229 12 270 95 321 28 18 56 19 398 19 321 0 373 -2 404
-16z m1219 -10 c68 -50 69 -54 72 -295 3 -212 2 -221 -20 -260 -12 -22 -38
-50 -58 -62 -34 -21 -44 -22 -398 -25 -341 -3 -365 -2 -406 17 -30 13 -54 34
-73 62 -27 42 -28 46 -32 207 -5 253 8 305 89 360 l34 23 382 -3 c368 -3 384
-4 410 -24z"/>
</g>
</svg>
