<?xml version="1.0" standalone="no"?>
<!DOCTYPE svg PUBLIC "-//W3C//DTD SVG 20010904//EN"
 "http://www.w3.org/TR/2001/REC-SVG-20010904/DTD/svg10.dtd">
<svg version="1.0" xmlns="http://www.w3.org/2000/svg"
 width="512.000000pt" height="404.000000pt" viewBox="0 0 512.000000 404.000000"
 preserveAspectRatio="xMidYMid meet">

<g transform="translate(0.000000,404.000000) scale(0.100000,-0.100000)"
fill="#2DBCAF" stroke="none">
<path d="M217 4016 c-66 -18 -126 -62 -162 -121 l-30 -48 0 -1821 c0 -1781 0
-1822 19 -1860 26 -52 79 -104 130 -127 40 -18 120 -19 2386 -19 2262 0 2346
1 2386 19 48 22 105 78 131 129 17 35 18 115 21 1836 1 1185 -1 1811 -8 1836
-16 61 -73 125 -137 157 l-58 28 -2315 2 c-1875 1 -2324 -1 -2363 -11z m2040
-445 c26 -12 52 -35 70 -62 l28 -43 3 -535 c2 -295 0 -559 -3 -588 -7 -60 -36
-108 -84 -140 l-34 -23 -822 0 -822 0 -34 23 c-18 12 -44 38 -56 56 l-23 34 0
584 c0 519 2 589 16 619 18 37 59 71 102 84 15 5 385 9 822 9 760 1 797 0 837
-18z m2300 0 c26 -12 52 -35 70 -62 l28 -43 3 -535 c2 -295 0 -559 -3 -588 -7
-60 -36 -108 -84 -140 l-34 -23 -822 0 -822 0 -34 23 c-18 12 -44 38 -56 57
l-23 34 2 595 3 596 24 34 c13 18 42 42 65 52 39 18 82 19 841 19 765 0 802
-1 842 -19z m-2287 -1773 c44 -30 69 -66 80 -114 12 -51 12 -1087 0 -1138 -12
-54 -38 -87 -90 -114 l-44 -22 -801 0 c-759 0 -802 1 -841 19 -23 10 -52 34
-65 52 l-24 34 -3 585 c-1 322 0 595 3 607 8 32 55 84 90 99 24 11 190 13 846
14 l816 0 33 -22z m2301 -1 c48 -32 77 -80 84 -140 3 -29 5 -293 3 -588 l-3
-535 -28 -43 c-18 -27 -44 -50 -70 -62 -40 -18 -77 -19 -842 -19 -759 0 -802
1 -841 19 -23 10 -52 34 -65 52 l-24 34 -3 585 c-1 322 0 595 3 607 8 32 55
84 90 99 24 11 190 13 846 14 l816 0 34 -23z"/>
</g>
</svg>
