<svg xmlns="http://www.w3.org/2000/svg" xmlns:xlink="http://www.w3.org/1999/xlink" aria-hidden="true" role="img" class="iconify iconify--ic" width="32" height="32" preserveAspectRatio="xMidYMid meet" viewBox="0 0 24 24"><path d="M3 3v18h18V3H3zm16 16H5V7h14v12zm-5.5-6c0 .83-.67 1.5-1.5 1.5s-1.5-.67-1.5-1.5s.67-1.5 1.5-1.5s1.5.67 1.5 1.5zM12 9c-2.73 0-5.06 1.66-6 4c.94 2.34 3.27 4 6 4s5.06-1.66 6-4c-.94-2.34-3.27-4-6-4zm0 6.5a2.5 2.5 0 0 1 0-5a2.5 2.5 0 0 1 0 5z" fill="currentColor"></path></svg>